<svg width="15" height="20" viewBox="0 0 15 20" xmlns="http://www.w3.org/2000/svg"><path d="M7.051.198C5.753 1.594 4.013 3.486 2.585 5.516 1.156 7.546 0 9.71 0 11.785c0 1.243.46 3.038 1.627 4.614s3.105 2.887 5.873 2.887c2.768 0 4.706-1.31 5.873-2.887C14.54 14.823 15 13.028 15 11.785c0-2.087-1.217-4.244-2.665-6.27C10.887 3.492 9.168 1.6 8.015.226c-.374-.309-.601-.282-.964-.027zm.456 1.413c1.14 1.335 2.559 2.935 3.783 4.648 1.387 1.94 2.424 3.969 2.424 5.526 0 .9-.397 2.527-1.372 3.844-.976 1.317-2.467 2.37-4.842 2.37-2.375 0-3.866-1.053-4.842-2.37-.975-1.317-1.372-2.944-1.372-3.844 0-1.57.988-3.59 2.35-5.526 1.21-1.718 2.65-3.325 3.87-4.648z" fill="#2F3032" fill-rule="nonzero"/></svg>