<svg width="22" height="22" viewBox="0 0 22 22" xmlns="http://www.w3.org/2000/svg"><path d="M.078 4.03C.572 1.146 3.046.157 3.87.074c.742-.082 1.32-.412 2.144 1.484A420.71 420.71 0 0 1 7.745 6.09s.083.494-.412 1.071c-.495.66-1.402 1.566-1.402 1.566s-.247.494 0 .906c.99 1.978 4.535 5.439 6.431 6.51.495.247.907-.082.907-.082s.99-.907 1.566-1.401c.66-.495 1.155-.33 1.155-.33s2.555.906 4.452 1.73c1.896.742 1.566 1.319 1.484 2.143 0 .742-.99 3.214-3.958 3.708C10.878 23.147-1.076 11.2.078 4.03zm11.836 2.624c-.787.348-1.312-.782-.525-1.217 4.11-1.827 7.87 2.435 6.209 6.176-.438.783-1.662.26-1.225-.522 1.225-2.697-1.574-5.741-4.46-4.437zm-.216-4.306c-.814.163-.977-1.06-.163-1.223 5.532-.977 10.25 3.912 9.355 9.372-.162.815-1.383.57-1.22-.244.732-4.645-3.335-8.72-7.972-7.905z" fill="#979799" fill-rule="evenodd"/></svg>