<svg width="20" height="20" viewBox="0 0 20 20" xmlns="http://www.w3.org/2000/svg" xmlns:xlink="http://www.w3.org/1999/xlink"><defs><path d="M15.992 229c-2.715 0-3.056 0-4.122.058-1.057.05-1.79.217-2.415.468-.666.25-1.232.6-1.79 1.143a5.553 5.553 0 0 0-1.132 1.794c-.25.634-.416 1.368-.466 2.42C6 235.966 6 236.3 6 239.012c0 2.711 0 3.062.058 4.13.05 1.06.217 1.794.467 2.42.25.667.6 1.226 1.149 1.785.582.517 1.149.86 1.806 1.118.633.25 1.366.417 2.415.467 1.083.059 1.416.067 4.13.067s3.064 0 4.13-.067c1.049-.05 1.782-.217 2.415-.467.666-.25 1.215-.6 1.773-1.151a5.247 5.247 0 0 0 1.14-1.786c.25-.634.417-1.368.459-2.42.05-1.084.058-1.418.058-4.138 0-2.72 0-3.062-.058-4.13-.05-1.043-.217-1.778-.467-2.42-.25-.668-.616-1.21-1.165-1.769a4.84 4.84 0 0 0-1.774-1.151c-.633-.25-1.365-.418-2.414-.476-1.075-.025-1.408-.025-4.13-.025zm0 1.802c2.664 0 2.98 0 4.038.059.974.05 1.499.208 1.857.35.466.167.8.392 1.149.751.35.334.566.668.75 1.143.132.359.29.885.332 1.86.059 1.06.067 1.378.067 4.048s0 2.987-.058 4.046c-.05.976-.209 1.502-.35 1.86a2.848 2.848 0 0 1-.75 1.152c-.333.35-.666.568-1.14.751-.358.134-.883.292-1.857.334-1.057.058-1.374.067-4.038.067-2.665 0-2.981 0-4.039-.059-.974-.05-1.498-.208-1.856-.35a2.84 2.84 0 0 1-1.15-.751 2.91 2.91 0 0 1-.749-1.143c-.133-.359-.291-.885-.333-1.86-.058-1.06-.066-1.377-.066-4.047s0-2.988.058-4.047c.05-.976.208-1.502.35-1.86.166-.468.39-.802.749-1.152.333-.35.666-.568 1.14-.751.359-.134.883-.292 1.857-.334 1.058-.058 1.374-.067 4.039-.067zm0 3.07a5.137 5.137 0 0 0-5.13 5.14 5.137 5.137 0 0 0 5.13 5.14 5.137 5.137 0 0 0 5.129-5.14 5.137 5.137 0 0 0-5.13-5.14zm0 8.478a3.344 3.344 0 0 1-3.33-3.337 3.344 3.344 0 0 1 3.33-3.338 3.344 3.344 0 0 1 3.33 3.338 3.344 3.344 0 0 1-3.33 3.337zm6.536-8.677c0 .667-.541 1.193-1.2 1.193-.665 0-1.165-.534-1.165-1.202 0-.667.533-1.235 1.2-1.235.665 0 1.207.543 1.207 1.202l-.042.042z" id="a"/></defs><use fill="#979799" fill-rule="nonzero" xlink:href="#a" transform="translate(-6 -229)"/></svg>