<svg width="22" height="22" viewBox="0 0 22 22" xmlns="http://www.w3.org/2000/svg"><path d="M21.806 20.71l-4.471-4.438c3.334-3.869 3.144-9.71-.53-13.39C14.91.949 12.37 0 9.87 0 7.37 0 4.83.948 2.9 2.883a9.852 9.852 0 0 0 0 13.958 9.865 9.865 0 0 0 6.971 2.883 9.736 9.736 0 0 0 6.404-2.39l4.47 4.476a.72.72 0 0 0 .493.19c.19 0 .38-.076.53-.228.304-.265.304-.758.039-1.062zM3.959 15.741c-1.59-1.555-2.424-3.679-2.424-5.879 0-2.2.871-4.324 2.424-5.917C5.551 2.352 7.635 1.517 9.87 1.517c2.236 0 4.32.873 5.911 2.428 1.554 1.593 2.425 3.68 2.425 5.917 0 2.238-.871 4.324-2.425 5.917a8.468 8.468 0 0 1-5.91 2.428 8.344 8.344 0 0 1-5.912-2.466z" fill="#979799" fill-rule="nonzero"/></svg>