<svg width="20" height="21" viewBox="0 0 20 21" xmlns="http://www.w3.org/2000/svg"><path d="M11.539 20.286a.769.769 0 0 1-.544-.226l-3.077-3.077a.768.768 0 0 1-.226-.543V9.517c0-.22-.164-.615-.318-.77L.225 1.6A.769.769 0 0 1 .77.286h18.462a.769.769 0 0 1 .544 1.313l-7.149 7.148c-.154.155-.318.55-.318.77v10a.768.768 0 0 1-.77.769zM9.23 16.12l1.538 1.539V9.517c0-.63.324-1.412.77-1.857l1.02-1.021 4.815-4.815H2.626L8.462 7.66c.445.445.769 1.226.769 1.857v6.604z" fill="#E8C931" fill-rule="nonzero"/></svg>