<svg width="20" height="20" viewBox="0 0 20 20" xmlns="http://www.w3.org/2000/svg"><path d="M7.449 0a.556.556 0 0 0-.503.556v2.622c-.47.212-.91.466-1.32.763L3.346 2.58a.555.555 0 0 0-.773.2L.073 7.222a.556.556 0 0 0 .217.763l2.274 1.25c-.027.252-.061.503-.061.764 0 .258.036.508.06.764L.29 12.014a.556.556 0 0 0-.217.755l2.5 4.445a.555.555 0 0 0 .772.2l2.273-1.364c.415.3.856.562 1.328.773v2.621c0 .307.248.556.555.556h4.998a.555.555 0 0 0 .555-.556v-2.621a7.47 7.47 0 0 0 1.328-.773l2.273 1.363a.555.555 0 0 0 .773-.2l2.499-4.444a.556.556 0 0 0-.217-.755l-2.274-1.25c.025-.256.061-.506.061-.764 0-.261-.034-.512-.06-.764l2.273-1.25a.556.556 0 0 0 .217-.763l-2.5-4.445a.555.555 0 0 0-.772-.2l-2.282 1.363a7.472 7.472 0 0 0-1.319-.763V.556A.555.555 0 0 0 12.5.001h-5.05zm.607 1.112h3.888v2.413c.002.227.143.43.355.512a6.384 6.384 0 0 1 1.701.99c.18.148.432.169.634.052l2.1-1.25 1.952 3.454-2.1 1.155a.556.556 0 0 0-.278.564c.051.326.078.665.078.998 0 .342-.02.673-.069.99-.037.23.074.459.278.573l2.082 1.154-1.943 3.455-2.083-1.25a.555.555 0 0 0-.633.043 6.403 6.403 0 0 1-1.719.99.556.556 0 0 0-.355.52v2.414H8.056v-2.413a.556.556 0 0 0-.355-.521 6.403 6.403 0 0 1-1.719-.99.555.555 0 0 0-.633-.043l-2.083 1.25-1.943-3.455 2.082-1.154a.556.556 0 0 0 .278-.573 6.458 6.458 0 0 1-.07-.99c0-.333.028-.672.079-.998a.556.556 0 0 0-.278-.564l-2.1-1.155L3.266 3.83l2.1 1.25A.555.555 0 0 0 6 5.026a6.384 6.384 0 0 1 1.7-.99.556.556 0 0 0 .356-.511V1.112zM10 5.834A4.174 4.174 0 0 0 5.835 10 4.174 4.174 0 0 0 10 14.167 4.174 4.174 0 0 0 14.165 10 4.174 4.174 0 0 0 10 5.834zm0 1.11A3.047 3.047 0 0 1 13.054 10 3.047 3.047 0 0 1 10 13.056 3.047 3.047 0 0 1 6.946 10 3.047 3.047 0 0 1 10 6.945z" fill="#2F3032" fill-rule="nonzero"/></svg>